<svg width="239" height="40" viewBox="0 0 239 40" fill="none" xmlns="http://www.w3.org/2000/svg">
<g clip-path="url(#clip0_97_29712)">
<path d="M41.8967 19.3925C41.8643 18.5044 42.0128 17.6189 42.3333 16.7892C42.6538 15.9595 43.1397 15.2028 43.7618 14.5645C44.3839 13.9262 45.1293 13.4194 45.9534 13.0747C46.7775 12.7299 47.6632 12.5543 48.5572 12.5583C51.9261 12.5583 53.92 14.5231 54.5216 16.8297L52.4074 17.5387C52.2214 16.6788 51.7297 15.9143 51.0225 15.3855C50.3153 14.8567 49.44 14.5991 48.5572 14.6598C46.3743 14.6598 44.1914 16.2402 44.1914 19.4352C44.1914 22.6302 46.3227 24.1508 48.583 24.1508C49.4707 24.1764 50.3413 23.9049 51.0551 23.3797C51.7689 22.8545 52.2845 22.1062 52.5191 21.2548L54.5732 21.9212C54.2215 23.221 53.433 24.362 52.3385 25.1546C51.2441 25.9472 49.9097 26.3436 48.5572 26.2779C47.6551 26.2947 46.7592 26.1261 45.9258 25.7825C45.0923 25.4389 44.3393 24.9279 43.7139 24.2814C43.0886 23.6349 42.6043 22.8669 42.2916 22.0256C41.9789 21.1843 41.8445 20.2879 41.8967 19.3925Z" fill="#375BD2"/>
<path d="M58.6468 25.9619H56.4811V12.5241H58.6468V17.795C58.9622 17.4242 59.3581 17.1294 59.8047 16.9326C60.2512 16.7358 60.7369 16.6422 61.2251 16.6588C63.4682 16.6588 64.551 18.2563 64.551 20.2468V25.9619H62.4454V20.6141C62.4849 20.354 62.4649 20.0883 62.3869 19.8369C62.3089 19.5855 62.175 19.3548 61.995 19.1619C61.815 18.9691 61.5936 18.819 61.3472 18.7228C61.1008 18.6267 60.8358 18.5869 60.5719 18.6066C60.31 18.6068 60.051 18.6611 59.8113 18.766C59.5716 18.871 59.3564 19.0243 59.1795 19.2163C59.0025 19.4082 58.8676 19.6346 58.7833 19.8812C58.699 20.1277 58.6672 20.3889 58.6898 20.6483L58.6468 25.9619Z" fill="#375BD2"/>
<path d="M69.3895 20.785L71.7186 20.4262C72.2428 20.3578 72.3889 20.093 72.3889 19.7769C72.3889 19.0166 71.8733 18.4015 70.6701 18.4015C70.4381 18.3817 70.2044 18.409 69.9833 18.4816C69.7622 18.5543 69.5583 18.6708 69.3839 18.8242C69.2095 18.9776 69.0682 19.1646 68.9687 19.3739C68.8693 19.5832 68.8136 19.8104 68.8051 20.0417L66.8285 19.5975C66.9918 18.0342 68.4184 16.6417 70.6529 16.6417C73.4546 16.6417 74.5203 18.2221 74.5203 20.0588V24.5438C74.5153 25.0302 74.5527 25.5161 74.632 25.996H72.6124C72.543 25.6157 72.5142 25.2291 72.5264 24.8428C72.2248 25.3024 71.8076 25.6758 71.3162 25.926C70.8248 26.1762 70.2762 26.2946 69.7247 26.2694C69.3402 26.3008 68.9533 26.2544 68.5873 26.133C68.2214 26.0116 67.884 25.8176 67.5956 25.5629C67.3072 25.3081 67.0738 24.9979 66.9094 24.651C66.7451 24.304 66.6532 23.9275 66.6394 23.5443C66.6394 21.8955 67.834 21.0071 69.3895 20.785ZM72.3889 22.2372V21.8272L70.0169 22.1774C69.6946 22.1884 69.3889 22.3223 69.1633 22.5513C68.9376 22.7804 68.8094 23.087 68.8051 23.4076C68.8079 23.5731 68.8451 23.7362 68.9145 23.8866C68.984 24.0371 69.084 24.1715 69.2084 24.2815C69.3328 24.3915 69.4789 24.4747 69.6373 24.5257C69.7957 24.5767 69.963 24.5945 70.1286 24.5779C70.4416 24.6097 70.7578 24.5701 71.0531 24.4622C71.3484 24.3544 71.6151 24.181 71.833 23.9554C72.0508 23.7298 72.2141 23.4578 72.3105 23.1601C72.4068 22.8624 72.4336 22.5468 72.3889 22.2372Z" fill="#375BD2"/>
<path d="M78.1981 12.3362C78.3857 12.3339 78.5719 12.3687 78.7458 12.4386C78.9198 12.5084 79.0781 12.6118 79.2116 12.743C79.345 12.8741 79.451 13.0302 79.5233 13.2024C79.5956 13.3745 79.6329 13.5592 79.6329 13.7458C79.6329 14.1173 79.4844 14.4737 79.2202 14.7364C78.9559 14.9992 78.5975 15.1468 78.2238 15.1468C77.8501 15.1468 77.4918 14.9992 77.2275 14.7364C76.9633 14.4737 76.8148 14.1173 76.8148 13.7458C76.8147 13.3778 76.9593 13.0243 77.2178 12.7609C77.4763 12.4976 77.8281 12.3451 78.1981 12.3362ZM77.1413 26.0046V16.9237H79.2806V25.9619L77.1413 26.0046Z" fill="#375BD2"/>
<path d="M84.2489 25.9619H82.0831V16.9237H84.1973V18.1282C84.4717 17.6658 84.8662 17.2853 85.3396 17.0268C85.8129 16.7682 86.3475 16.6411 86.8873 16.6588C89.1046 16.6588 90.1703 18.2563 90.1703 20.2468V25.9619H88.0045V20.6141C88.0045 19.5036 87.4975 18.6066 86.1396 18.6066C85.8693 18.6082 85.6024 18.6667 85.3565 18.7781C85.1105 18.8895 84.8911 19.0514 84.7125 19.253C84.534 19.4547 84.4003 19.6917 84.3204 19.9484C84.2405 20.205 84.2161 20.4756 84.2489 20.7423V25.9619Z" fill="#375BD2"/>
<path d="M92.8087 25.9619V12.5241H94.9738V25.9619H92.8087Z" fill="#375BD2"/>
<path d="M98.8413 12.3362C99.2173 12.3362 99.5779 12.4847 99.8437 12.7491C100.11 13.0134 100.259 13.3719 100.259 13.7458C100.257 14.0221 100.173 14.2918 100.018 14.5209C99.8624 14.75 99.6423 14.9282 99.3852 15.0332C99.128 15.1382 98.8455 15.1652 98.5729 15.1109C98.3004 15.0565 98.0501 14.9233 97.8536 14.7278C97.6571 14.5324 97.5231 14.2836 97.4684 14.0126C97.4138 13.7416 97.441 13.4607 97.5465 13.205C97.6521 12.9494 97.8314 12.7305 98.0618 12.5759C98.2922 12.4213 98.5634 12.3379 98.8413 12.3362ZM97.776 26.0046V16.9237H99.9238V25.9619L97.776 26.0046Z" fill="#375BD2"/>
<path d="M104.892 25.9619H102.726V16.9237H104.832V18.1282C105.108 17.667 105.503 17.2876 105.975 17.0292C106.448 16.7708 106.982 16.643 107.522 16.6588C109.748 16.6588 110.813 18.2563 110.813 20.2468V25.9619H108.648V20.6141C108.687 20.354 108.667 20.0883 108.589 19.8369C108.511 19.5855 108.377 19.3548 108.197 19.1619C108.017 18.9691 107.796 18.819 107.549 18.7228C107.303 18.6267 107.038 18.5869 106.774 18.6066C106.504 18.6081 106.238 18.6665 105.992 18.778C105.746 18.8895 105.527 19.0515 105.35 19.2534C105.172 19.4552 105.039 19.6923 104.96 19.949C104.881 20.2057 104.858 20.476 104.892 20.7423V25.9619Z" fill="#375BD2"/>
<path d="M118.222 20.7423L122.038 25.9619H119.382L116.709 22.2372L115.592 23.4076V25.9704H113.443V12.5241H115.592V20.5799L119.081 16.9237H121.96L118.222 20.7423Z" fill="#375BD2"/>
<path d="M16.2344 8.89348L25.6021 14.2412V24.9794L16.2602 30.3614L6.89254 25.0222V14.2839L16.2344 8.89348ZM16.2344 1L12.7967 2.98191L3.43768 8.37238L0 10.3543V14.301V25.0307V28.9774L3.43768 30.9423L12.8053 36.29L16.243 38.2548L19.6807 36.2729L29.0226 30.8825L32.4603 28.9091V24.9624V14.2241V10.2774L29.0226 8.31258L19.6549 2.96483L16.2172 1H16.2344Z" fill="#375BD2"/>
</g>
<path d="M153.127 26H155.486L150.516 13.238H148.013L143.044 26H145.331L146.519 22.796H151.921L153.127 26ZM149.22 15.578L151.164 20.798H147.275L149.22 15.578Z" fill="#375BD2"/>
<path d="M162.318 25.028C162.318 25.388 162.354 25.802 162.39 26H164.389C164.353 25.676 164.299 25.118 164.299 24.398V17.234H162.21V22.418C162.21 23.57 161.58 24.38 160.374 24.38C159.113 24.38 158.609 23.462 158.609 22.382V17.234H156.521V22.76C156.521 24.704 157.745 26.252 159.834 26.252C160.86 26.252 161.886 25.82 162.318 25.028Z" fill="#375BD2"/>
<path d="M169.649 14.552H167.759V15.866C167.759 16.64 167.345 17.234 166.408 17.234H165.958V19.088H167.579V23.498C167.579 25.136 168.587 26.108 170.208 26.108C170.964 26.108 171.36 25.964 171.486 25.91V24.182C171.396 24.2 171.054 24.254 170.766 24.254C169.991 24.254 169.649 23.93 169.649 23.156V19.088H171.468V17.234H169.649V14.552Z" fill="#375BD2"/>
<path d="M177.379 24.398C176.101 24.398 174.93 23.426 174.93 21.608C174.93 19.79 176.101 18.854 177.379 18.854C178.676 18.854 179.828 19.79 179.828 21.608C179.828 23.444 178.676 24.398 177.379 24.398ZM177.379 16.964C174.768 16.964 172.842 18.926 172.842 21.608C172.842 24.308 174.768 26.27 177.379 26.27C180.008 26.27 181.935 24.308 181.935 21.608C181.935 18.926 180.008 16.964 177.379 16.964Z" fill="#375BD2"/>
<path d="M186.024 26V20.798C186.024 19.682 186.726 18.854 187.842 18.854C189.031 18.854 189.535 19.646 189.535 20.654V26H191.587V20.798C191.587 19.718 192.308 18.854 193.406 18.854C194.576 18.854 195.098 19.628 195.098 20.654V26H197.115V20.312C197.115 17.99 195.603 16.982 194.018 16.982C192.884 16.982 191.858 17.378 191.173 18.53C190.705 17.504 189.697 16.982 188.544 16.982C187.554 16.982 186.456 17.45 185.952 18.35V17.234H183.953V26H186.024Z" fill="#375BD2"/>
<path d="M199.133 23.624C199.133 25.01 200.267 26.27 202.103 26.27C203.526 26.27 204.39 25.55 204.804 24.884C204.804 25.586 204.876 25.946 204.894 26H206.839C206.821 25.91 206.731 25.388 206.731 24.596V20.24C206.731 18.494 205.705 16.964 203.004 16.964C200.843 16.964 199.475 18.314 199.313 19.826L201.221 20.258C201.311 19.376 201.923 18.674 203.022 18.674C204.174 18.674 204.678 19.268 204.678 20.006C204.678 20.312 204.534 20.564 204.03 20.636L201.779 20.978C200.285 21.194 199.133 22.058 199.133 23.624ZM202.5 24.632C201.671 24.632 201.221 24.092 201.221 23.498C201.221 22.778 201.743 22.418 202.392 22.31L204.678 21.968V22.364C204.678 24.074 203.67 24.632 202.5 24.632Z" fill="#375BD2"/>
<path d="M211.867 14.552H209.977V15.866C209.977 16.64 209.563 17.234 208.626 17.234H208.176V19.088H209.797V23.498C209.797 25.136 210.805 26.108 212.426 26.108C213.182 26.108 213.578 25.964 213.704 25.91V24.182C213.614 24.2 213.272 24.254 212.984 24.254C212.21 24.254 211.867 23.93 211.867 23.156V19.088H213.686V17.234H211.867V14.552Z" fill="#375BD2"/>
<path d="M217.903 26V17.234H215.832V26H217.903ZM215.508 14.156C215.508 14.912 216.12 15.506 216.858 15.506C217.615 15.506 218.227 14.912 218.227 14.156C218.227 13.4 217.615 12.788 216.858 12.788C216.12 12.788 215.508 13.4 215.508 14.156Z" fill="#375BD2"/>
<path d="M224.45 24.398C223.172 24.398 222.002 23.426 222.002 21.608C222.002 19.79 223.172 18.854 224.45 18.854C225.747 18.854 226.899 19.79 226.899 21.608C226.899 23.444 225.747 24.398 224.45 24.398ZM224.45 16.964C221.84 16.964 219.913 18.926 219.913 21.608C219.913 24.308 221.84 26.27 224.45 26.27C227.079 26.27 229.006 24.308 229.006 21.608C229.006 18.926 227.079 16.964 224.45 16.964Z" fill="#375BD2"/>
<path d="M233.113 20.942C233.113 19.79 233.743 18.872 234.931 18.872C236.246 18.872 236.732 19.736 236.732 20.816V26H238.821V20.456C238.821 18.53 237.794 16.982 235.652 16.982C234.679 16.982 233.635 17.396 233.059 18.404V17.234H231.024V26H233.113V20.942Z" fill="#375BD2"/>
<rect x="132.041" y="10" width="1" height="20" rx="0.5" fill="#DFE7FB"/>
<defs>
<clipPath id="clip0_97_29712">
<rect width="122.037" height="40" fill="white"/>
</clipPath>
</defs>
</svg>
